# xmcd CD database file
#
# Track frame offsets:
#	150
#	8787
#	24567
#	39592
#	49455
#	63434
#	71421
#	75065
#
# Disc length: 1166 seconds
#
# Revision: 0
# Processed by: cddbd v1.5.2PL0 Copyright (c) Steve Scherf et al.
# Submitted via: CDex 1.70beta2
#
DISCID=5b048c08
DTITLE=Dillabough, Lyle, and McIndoe, Ian - Mac and the Troubabour
DYEAR=2007
DGENRE=Country
TTITLE0=Hat Along the Track
TTITLE1=Little Pink Houses
TTITLE2=Help Me Make It Through the Night
TTITLE3=Tears In Heaven (wt.Crystal Dillabough)
TTITLE4=My Hearts Upon the Wind
TTITLE5=Bye Bye Love
TTITLE6=Robbie's Lament (wt Robert Bockstael)
TTITLE7=Country Comfort
EXTD=YEAR: 2007
EXTT0=
EXTT1=
EXTT2=
EXTT3=
EXTT4=
EXTT5=
EXTT6=
EXTT7=
PLAYORDER=
